<svg xmlns="http://www.w3.org/2000/svg" version="1.1" xmlns:xlink="http://www.w3.org/1999/xlink" xmlns:svgjs="http://svgjs.dev/svgjs" viewBox="0 0 800 800"><defs><linearGradient x1="50%" y1="0%" x2="50%" y2="100%" id="uundulate-grad"><stop stop-color="hsl(265, 55%, 30%)" stop-opacity="1" offset="45%"></stop><stop stop-color="hsl(265, 55%, 60%)" stop-opacity="1" offset="100%"></stop></linearGradient></defs><g stroke-width="2" stroke="url(#uundulate-grad)" fill="none"><path d="M661.0122871741867 294.3099904363105C721.875532842169 408.856013505277 673.1361740637755 589.8231005579016 562.9776400113801 658.3083066215806C452.8191059589849 726.7935126852597 193.11456939067102 737.585002610936 132.25132372268865 623.0389795419695C71.38807805470628 508.4929564730031 160.67552675267 176.9726019542211 270.8340608050653 108.48739589054207C380.99259485746063 40.00218982686306 600.1490415062044 179.76396736734415 661.0122871741867 294.3099904363105C721.875532842169 408.856013505277 673.1361740637755 589.8231005579016 562.9776400113801 658.3083066215806 "></path><path d="M649.6639255354143 298.90520293602265C707.8809431308757 408.47096413242525 661.2606869080645 581.5699169653706 555.891654336208 647.077505374107C450.5226217643517 712.5850937828435 202.10958678596455 722.90738849436 143.89256919050314 613.3416272979573C85.67555159504172 503.7758661015546 171.08093730613746 186.66944004011094 276.4499698779939 121.16185163137447C381.81900244985036 55.654263222638065 591.4469079399529 189.33944173961993 649.6639255354143 298.90520293602265C707.8809431308757 408.47096413242525 661.2606869080645 581.5699169653706 555.891654336208 647.077505374107 "></path><path d="M638.3155638966418 303.5004154357347C693.8863534195823 408.0859147595736 649.3851997523534 573.3167333728395 548.805668661036 635.8467041266334C448.2261375697185 698.3766748804273 211.10460418125803 708.229774377784 155.53381465831762 603.6442750539451C99.96302513537722 499.05877573010616 181.48634785960496 196.3662781260008 282.0658789509224 133.83630737220693C382.64541004223986 71.30633661841301 582.7447743737015 198.91491611189576 638.3155638966418 303.5004154357347C693.8863534195823 408.0859147595736 649.3851997523534 573.3167333728395 548.805668661036 635.8467041266334 "></path><path d="M626.9672022578695 308.09565845302484C679.891763708289 407.70089590430007 637.5097125966424 565.0635802978867 541.7196829858639 624.615933396738C445.9296533750853 684.1682864955893 220.09962157655156 693.5521907787861 167.1750601261321 593.946953327511C114.25049867571266 494.34171587623587 191.8917584130724 206.06314672946877 287.68178802385097 146.51079363061746C383.4718176346296 86.95844053176614 574.0426408074501 208.49042100174967 626.9672022578695 308.09565845302484C679.891763708289 407.70089590430007 637.5097125966424 565.0635802978867 541.7196829858639 624.615933396738 "></path><path d="M615.6188406190972 312.69088621152594C665.8971739969957 407.31586179023725 625.6342254409315 556.8104119641446 534.6336973106918 613.3851474080534C443.6331691804521 669.9598828519621 229.09463897184503 678.8745919209991 178.8163055939466 584.2496163422877C128.5379722160481 489.6246407635763 202.2971689665399 215.76000007414768 293.29769709677953 159.18526463023892C384.2982252270191 102.61052918633015 565.3405072411988 218.0659106328145 615.6188406190972 312.69088621152594C665.8971739969957 407.31586179023725 625.6342254409315 556.8104119641446 534.6336973106918 613.3851474080534 "></path><path d="M604.2704789803247 317.28609871123797C651.9025842857022 406.9308124173856 613.7587382852204 548.5572283716136 527.5477116355196 602.1543461605797C441.3366849858189 655.751463949546 238.08965636713856 664.1969778044231 190.45755106176108 574.5522640982755C142.8254457563836 484.90755039212786 212.70257952000736 225.45683816003748 298.91360616970803 171.85972037107132C385.1246328194088 118.26260258210516 556.6383736749473 227.64138500509034 604.2704789803247 317.28609871123797C651.9025842857022 406.9308124173856 613.7587382852204 548.5572283716136 527.5477116355196 602.1543461605797 "></path><path d="M592.9221326003415 321.88131121095C637.9080098331979 406.54576304453394 601.8832663882984 540.3040447790826 520.4617412191367 590.9235449131062C439.0402160499748 641.5430450471297 247.08468902122115 649.5193636878471 202.09881178836463 564.8549118542633C157.1129345555081 480.1904600206793 223.10800533226393 235.1536762459274 304.52953050142565 184.53417611190372C385.9510556705875 133.9146759778801 547.9362553674849 237.21685937736612 592.9221326003415 321.88131121095C637.9080098331979 406.54576304453394 601.8832663882984 540.3040447790826 520.4617412191367 590.9235449131062 "></path><path d="M581.5737557027801 326.47652371066204C623.9134048631156 406.1607136716822 590.0077639737983 532.0508611865516 513.3757402851754 579.6927436656326C436.74371659655264 627.3346261447136 256.0796911577256 634.8417495712711 213.74004199739005 555.1575596102509C171.40039283705448 475.4733696492308 233.5134006269423 244.85051433181718 310.14542431556515 197.20863185273612C386.77744800418805 149.56674937365506 539.2341065424445 246.7923337496419 581.5737557027801 326.47652371066204C623.9134048631156 406.1607136716822 590.0077639737983 532.0508611865516 513.3757402851754 579.6927436656326 "></path><path d="M570.2254398403747 331.07173621037407C609.9188609281894 405.7756642988304 578.1323225944545 523.7976775940205 506.28980038637053 568.461942418159C434.44727817828664 613.1262072422974 265.07475432938634 620.164135454695 225.38133324157172 545.4602073662386C185.68791215375717 470.75627927778237 243.91885695677695 254.54735241770703 315.7613791648609 209.88308759356858C387.60390137294485 165.21882276943006 530.5320187525601 256.36780812191773 570.2254398403747 331.07173621037407C609.9188609281894 405.7756642988304 578.1323225944545 523.7976775940205 506.28980038637053 568.461942418159 "></path><path d="M558.8770476840243 335.6669487100861C595.9242406993179 405.39061492597875 566.2568049211653 515.5444940014895 499.2037841936203 557.2311411706853C432.1507634660753 598.9177883398812 274.0697412071017 605.486521338119 237.02254819180808 535.7628551222265C199.97535517651448 466.03918890633383 254.32423699266633 264.2441905035969 321.37725772021133 222.55754333440098C388.4302784477563 180.870896165205 521.8298546687307 265.9432824941935 558.8770476840243 335.6669487100861C595.9242406993179 405.39061492597875 566.2568049211653 515.5444940014895 499.2037841936203 557.2311411706853 "></path><path d="M547.5286860452519 340.26216120979814C581.9296509880246 405.005565553127 554.3813177654542 507.29131040895834 492.11779851844824 546.0003399232116C429.85427927144224 584.709369437465 283.0647586023952 590.808907221543 248.66379365962257 526.0655028782141C214.26282871684998 461.3220985348853 264.7296475461338 273.94102858948673 326.99316679313984 235.23199907523338C389.2566860401459 196.52296956098002 513.1277211024792 275.5187568664693 547.5286860452519 340.26216120979814C581.9296509880246 405.005565553127 554.3813177654542 507.29131040895834 492.11779851844824 546.0003399232116 "></path><path d="M536.1803244064795 344.8573889682993C567.9350612767312 404.6205314390644 542.5058306097433 499.03814207521646 485.03181284327616 534.7695539345272C427.55779507680904 570.500965793838 292.05977599768875 576.131308363756 260.30503912743706 516.3681658929909C228.55030225718542 456.6050234222258 275.1350580996013 283.63788193416565 332.6090758660684 247.90647007485484C390.08309363253557 212.17505821554403 504.4255875362279 285.0942464975342 536.1803244064795 344.8573889682993C567.9350612767312 404.6205314390644 542.5058306097433 499.03814207521646 485.03181284327616 534.7695539345272 "></path><path d="M524.8319627677072 349.4526014680113C553.9404715654379 404.2354820662126 530.6303434540323 490.7849584826853 477.94582716810396 523.5387526870535C425.26131088217585 556.2925468914218 301.0547933929823 561.45369424718 271.94628459525154 506.67081364897865C242.83777579752086 451.8879330507773 285.54046865306873 293.33472002005544 338.22498493899695 260.58092581568724C390.9095012249252 227.82713161131903 495.7234539699764 294.66972086980996 524.8319627677072 349.4526014680113C553.9404715654379 404.2354820662126 530.6303434540323 490.7849584826853 477.94582716810396 523.5387526870535 "></path><path d="M513.4836011289348 354.04781396772336C539.9458818541445 403.850432693361 518.7548562983212 482.53177489015434 470.859841492932 512.3079514395799C422.96482668754265 542.0841279890055 310.04981078827575 546.776080130604 283.5875300630661 496.97346140496643C257.12524933785636 447.17084267932887 295.94587920653623 303.03155810594535 343.84089401192546 273.25538155651964C391.7359088173148 243.47920500709398 487.021320403725 304.24519524208574 513.4836011289348 354.04781396772336C539.9458818541445 403.850432693361 518.7548562983212 482.53177489015434 470.859841492932 512.3079514395799 "></path><path d="M502.13523949016235 358.6430569850135C525.9512921428511 403.46541383808733 506.87936914261013 474.2786218152014 463.7738558177598 501.0771807096844C420.66834249290946 527.8757396041675 319.0448281835693 532.0984965316061 295.22877553088057 487.2761396785322C271.4127228781918 442.45378282545846 306.3512897600037 312.72842670941327 349.456803084854 285.9298678149302C392.5623164097044 259.1313089204471 478.3191868374736 313.8207001319397 502.13523949016235 358.6430569850135C525.9512921428511 403.46541383808733 506.87936914261013 474.2786218152014 463.7738558177598 501.0771807096844 "></path><path d="M490.78687785139005 363.23826948472555C511.9567024315578 403.0803644652356 495.00388198689916 466.02543822267035 456.6878701425877 489.84637946221085C418.3718582982763 513.6673207017514 328.0398455788628 517.4208824150301 306.87002099869505 477.57878743452C285.70019641852724 437.7366924540099 316.7567003134712 322.4252647953031 355.0727121577826 298.6043235557626C393.388724002094 274.78338231622206 469.61705327122223 323.3961745042155 490.78687785139005 363.23826948472555C511.9567024315578 403.0803644652356 495.00388198689916 466.02543822267035 456.6878701425877 489.84637946221085 "></path><path d="M479.4385162126176 367.8334819844376C497.9621127202645 402.6953150923839 483.1283948311882 457.7722546301393 449.60188446741563 478.6155782147372C416.0753741036431 499.4589017993351 337.03486297415634 502.74326829845404 318.51126646650954 467.8814351905078C299.98766995886274 433.01960208256145 327.16211086693863 332.122102881193 360.68862123071114 311.278779296595C394.21513159448364 290.43545571199707 460.9149197049708 332.9716488764913 479.4385162126176 367.8334819844376C497.9621127202645 402.6953150923839 483.1283948311882 457.7722546301393 449.60188446741563 478.6155782147372 "></path><path d="M468.0901698326343 372.4286944841496C483.9675382677601 402.3102657195322 471.25292293426617 449.5190710376082 442.5159140510326 467.3847769672636C413.77890516779905 485.25048289691904 346.0298956282389 488.065654181878 330.1525271931131 458.18408294649544C314.27515875798724 428.3025117111129 337.56753667919514 341.8189409670828 366.30454556242876 323.9532350374274C395.0415544456623 306.087529107772 452.2128013975085 342.5471232487671 468.0901698326343 372.4286944841496C483.9675382677601 402.3102657195322 471.25292293426617 449.5190710376082 442.5159140510326 467.3847769672636 "></path><path d="M456.7418081938619 377.02392224265077C469.9729485564668 401.92523160546955 459.37743577855514 441.26590270386623 435.4299283758605 456.15399097857903C411.48242097316586 471.04207925329183 355.0249130235324 473.38805532409106 341.7937726609276 448.4867459612723C328.5626322983227 423.5854365984535 347.97294723266265 351.51579431176174 371.92045463535726 336.6277060370489C395.8679620380519 321.7396177623361 443.510667831257 352.12261287983193 456.7418081938619 377.02392224265077C469.9729485564668 401.92523160546955 459.37743577855514 441.26590270386623 435.4299283758605 456.15399097857903 "></path><path d="M445.39344655508955 381.6191347423628C455.97835884517343 401.54018223261784 447.5019486228441 433.0127191113352 428.3439427006884 444.9231897311054C409.18593677853266 456.8336603508757 364.01993041882594 458.71044120751503 353.43501812874206 438.78939371726C342.8501058386582 418.86834622700496 358.3783577861301 361.2126323976516 377.5363637082858 349.3021617778813C396.69436963044154 337.39169115811103 434.8085342650056 361.69808725210777 445.39344655508955 381.6191347423628C455.97835884517343 401.54018223261784 447.5019486228441 433.0127191113352 428.3439427006884 444.9231897311054 "></path><path d="M434.04508491631714 386.2143625008639C441.98376913388006 401.1551481185552 435.6264614671331 424.7595507775932 421.2579570255163 433.6924037424209C406.8894525838995 442.6252567072486 373.01494781411947 444.03284234972807 365.07626359655654 429.0920567320368C357.1375793789936 414.15127111434555 368.7837683395976 370.90948574233045 383.1522727812144 361.9766327775028C397.52077722283116 353.0437798126751 426.1064006987542 371.2735768831726 434.04508491631714 386.2143625008639C441.98376913388006 401.1551481185552 435.6264614671331 424.7595507775932 421.2579570255163 433.6924037424209 "></path><path d="M422.6967232775448 390.80957500057593C427.98917942258674 400.7700987457034 423.75097431142206 416.5063671850621 414.1719713503442 422.4616024949472C404.59296838926633 428.41683780483237 382.00996520941294 429.35522823315205 376.71750906437103 419.39470448802456C371.42505291932906 409.434180742897 379.18917889306505 380.6063238282203 388.7681818541429 374.6510885183352C398.34718481522077 368.69585320845005 417.4042671325028 380.8490512554484 422.6967232775448 390.80957500057593C427.98917942258674 400.7700987457034 423.75097431142206 416.5063671850621 414.1719713503442 422.4616024949472 "></path><path d="M411.34836163877236 395.40478750028797C413.9945897112934 400.3850493728517 411.875487155711 408.25318359253106 407.0859856751721 411.2308012474736C402.2964841946332 414.20841890241616 391.00498260470647 414.677614116576 388.3587545321855 409.6973522440123C385.71252645966456 404.71709037144853 389.59458944653255 390.30316191411015 394.38409092707144 387.3255442591676C399.1735924076104 384.34792660422505 408.7021335662514 390.4245256277242 411.34836163877236 395.40478750028797C413.9945897112934 400.3850493728517 411.875487155711 408.25318359253106 407.0859856751721 411.2308012474736 "></path></g></svg>